{
  "accessors": [
    {
      "bufferView": 2,
      "componentType": 5126,
      "count": 65532,
      "max": [
        -1.1893582344055176,
        -0.37647807598114014,
        1.7315165996551514
      ],
      "min": [
        -1.4454573392868042,
        -0.474734365940094,
        1.5445234775543213
      ],
      "type": "VEC3"
    },
    {
      "bufferView": 2,
      "byteOffset": 786384,
      "componentType": 5126,
      "count": 65532,
      "max": [
        1.0,
        0.9999998807907104,
        0.999615490436554
      ],
      "min": [
        -0.9999937415122986,
        -1.0,
        -0.9999999403953552
      ],
      "type": "VEC3"
    },
    {
      "bufferView": 1,
      "componentType": 5126,
      "count": 65532,
      "max": [
        0.9993752837181091,
        0.998535692691803
      ],
      "min": [
        0.00048828125,
        0.03812068700790405
      ],
      "type": "VEC2"
    },
    {
      "bufferView": 0,
      "componentType": 5125,
      "count": 284001,
      "type": "SCALAR"
    },
    {
      "bufferView": 2,
      "byteOffset": 1572768,
      "componentType": 5126,
      "count": 65532,
      "max": [
        -1.1893677711486816,
        -0.38416704535484314,
        1.7314759492874146
      ],
      "min": [
        -1.4454330205917358,
        -0.47204649448394775,
        1.5445092916488647
      ],
      "type": "VEC3"
    },
    {
      "bufferView": 2,
      "byteOffset": 2359152,
      "componentType": 5126,
      "count": 65532,
      "max": [
        0.9999815821647644,
        1.0,
        0.999965488910675
      ],
      "min": [
        -0.9999964833259583,
        -0.9996633529663086,
        -0.9999962449073792
      ],
      "type": "VEC3"
    },
    {
      "bufferView": 1,
      "byteOffset": 524256,
      "componentType": 5126,
      "count": 65532,
      "max": [
        0.9994637966156006,
        0.9991959929466248
      ],
      "min": [
        0.00048828125,
        0.03564465045928955
      ],
      "type": "VEC2"
    },
    {
      "bufferView": 0,
      "byteOffset": 1136004,
      "componentType": 5125,
      "count": 245961,
      "type": "SCALAR"
    },
    {
      "bufferView": 2,
      "byteOffset": 3145536,
      "componentType": 5126,
      "count": 65532,
      "max": [
        -1.1893657445907593,
        -0.37398773431777954,
        1.7315236330032349
      ],
      "min": [
        -1.4454573392868042,
        -0.474734365940094,
        1.5445287227630615
      ],
      "type": "VEC3"
    },
    {
      "bufferView": 2,
      "byteOffset": 3931920,
      "componentType": 5126,
      "count": 65532,
      "max": [
        0.9999949932098389,
        1.0,
        0.9999986290931702
      ],
      "min": [
        -1.0,
        -0.9961861968040466,
        -0.999958336353302
      ],
      "type": "VEC3"
    },
    {
      "bufferView": 1,
      "byteOffset": 1048512,
      "componentType": 5126,
      "count": 65532,
      "max": [
        0.9995056986808777,
        0.9994769096374512
      ],
      "min": [
        0.00048828125,
        0.01806652545928955
      ],
      "type": "VEC2"
    },
    {
      "bufferView": 0,
      "byteOffset": 2119848,
      "componentType": 5125,
      "count": 240291,
      "type": "SCALAR"
    },
    {
      "bufferView": 2,
      "byteOffset": 4718304,
      "componentType": 5126,
      "count": 65532,
      "max": [
        -1.2613584995269775,
        -0.3711899220943451,
        1.707984209060669
      ],
      "min": [
        -1.3860597610473633,
        -0.4669305682182312,
        1.5994436740875244
      ],
      "type": "VEC3"
    },
    {
      "bufferView": 2,
      "byteOffset": 5504688,
      "componentType": 5126,
      "count": 65532,
      "max": [
        0.9994938969612122,
        0.9999994039535522,
        0.9999987483024597
      ],
      "min": [
        -0.9999849796295166,
        -0.9997831583023071,
        -0.9997852444648743
      ],
      "type": "VEC3"
    },
    {
      "bufferView": 1,
      "byteOffset": 1572768,
      "componentType": 5126,
      "count": 65532,
      "max": [
        0.9994996786117554,
        0.9994714260101318
      ],
      "min": [
        0.00048828125,
        0.10400402545928955
      ],
      "type": "VEC2"
    },
    {
      "bufferView": 0,
      "byteOffset": 3081012,
      "componentType": 5125,
      "count": 270231,
      "type": "SCALAR"
    },
    {
      "bufferView": 2,
      "byteOffset": 6291072,
      "componentType": 5126,
      "count": 65532,
      "max": [
        -1.2615927457809448,
        -0.37077632546424866,
        1.707592248916626
      ],
      "min": [
        -1.3863039016723633,
        -0.4719572067260742,
        1.5445277690887451
      ],
      "type": "VEC3"
    },
    {
      "bufferView": 2,
      "byteOffset": 7077456,
      "componentType": 5126,
      "count": 65532,
      "max": [
        0.9999291300773621,
        0.9999999403953552,
        0.9999467134475708
      ],
      "min": [
        -0.999984860420227,
        -0.9976094365119934,
        -0.9999937415122986
      ],
      "type": "VEC3"
    },
    {
      "bufferView": 1,
      "byteOffset": 2097024,
      "componentType": 5126,
      "count": 65532,
      "max": [
        0.9994989037513733,
        0.9994441866874695
      ],
      "min": [
        0.00048828125,
        0.10205090045928955
      ],
      "type": "VEC2"
    },
    {
      "bufferView": 0,
      "byteOffset": 4161936,
      "componentType": 5125,
      "count": 247473,
      "type": "SCALAR"
    },
    {
      "bufferView": 2,
      "byteOffset": 7863840,
      "componentType": 5126,
      "count": 65532,
      "max": [
        -1.2615033388137817,
        -0.3692115545272827,
        1.7066391706466675
      ],
      "min": [
        -1.3863732814788818,
        -0.47204649448394775,
        1.5445287227630615
      ],
      "type": "VEC3"
    },
    {
      "bufferView": 2,
      "byteOffset": 8650224,
      "componentType": 5126,
      "count": 65532,
      "max": [
        0.9999388456344604,
        0.9999998807907104,
        0.999973475933075
      ],
      "min": [
        -0.9997255206108093,
        -0.9996250867843628,
        -0.999998927116394
      ],
      "type": "VEC3"
    },
    {
      "bufferView": 1,
      "byteOffset": 2621280,
      "componentType": 5126,
      "count": 65532,
      "max": [
        0.9994959235191345,
        0.9995118379592896
      ],
      "min": [
        0.00048828125,
        0.10009777545928955
      ],
      "type": "VEC2"
    },
    {
      "bufferView": 0,
      "byteOffset": 5151828,
      "componentType": 5125,
      "count": 175797,
      "type": "SCALAR"
    },
    {
      "bufferView": 2,
      "byteOffset": 9436608,
      "componentType": 5126,
      "count": 37997,
      "max": [
        -1.261697769165039,
        -0.3692115545272827,
        1.7079691886901855
      ],
      "min": [
        -1.3860385417938232,
        -0.4669305682182312,
        1.6196677684783936
      ],
      "type": "VEC3"
    },
    {
      "bufferView": 2,
      "byteOffset": 9892572,
      "componentType": 5126,
      "count": 37997,
      "max": [
        0.9999246001243591,
        1.0,
        0.9999495148658752
      ],
      "min": [
        -0.9999301433563232,
        -0.9941529631614685,
        -0.9998274445533752
      ],
      "type": "VEC3"
    },
    {
      "bufferView": 1,
      "byteOffset": 3145536,
      "componentType": 5126,
      "count": 37997,
      "max": [
        0.9994956254959106,
        0.9994357228279114
      ],
      "min": [
        0.00048828125,
        0.10400402545928955
      ],
      "type": "VEC2"
    },
    {
      "bufferView": 0,
      "byteOffset": 5855016,
      "componentType": 5125,
      "count": 89976,
      "type": "SCALAR"
    }
  ],
  "asset": {
    "extras": {
      "author": "Terrie Simmons-Ehrhardt (https://sketchfab.com/terrielsimmons)",
      "license": "CC-BY-4.0 (http://creativecommons.org/licenses/by/4.0/)",
      "source": "https://sketchfab.com/3d-models/dragon-fruit-dcb4f2a93635420084d3e351768759ab",
      "title": "Dragon Fruit"
    },
    "generator": "Sketchfab-12.88.0",
    "version": "2.0"
  },
  "bufferViews": [
    {
      "buffer": 0,
      "byteLength": 6214920,
      "name": "floatBufferViews",
      "target": 34963
    },
    {
      "buffer": 0,
      "byteLength": 3449512,
      "byteOffset": 6214920,
      "byteStride": 8,
      "name": "floatBufferViews",
      "target": 34962
    },
    {
      "buffer": 0,
      "byteLength": 10348536,
      "byteOffset": 9664432,
      "byteStride": 12,
      "name": "floatBufferViews",
      "target": 34962
    }
  ],
  "buffers": [
    {
      "byteLength": 20012968,
      "uri": "e.bin"
    }
  ],
  "extensionsUsed": [
    "KHR_materials_unlit"
  ],
  "images": [
    {
      "uri": "textures/default_tex0_baseColor.jpeg"
    }
  ],
  "materials": [
    {
      "extensions": {
        "KHR_materials_unlit": {}
      },
      "name": "default_tex0",
      "pbrMetallicRoughness": {
        "baseColorTexture": {
          "index": 0
        },
        "metallicFactor": 0.0
      }
    }
  ],
  "meshes": [
    {
      "name": "Object_0",
      "primitives": [
        {
          "attributes": {
            "NORMAL": 1,
            "POSITION": 0,
            "TEXCOORD_0": 2
          },
          "indices": 3,
          "material": 0,
          "mode": 4
        }
      ]
    },
    {
      "name": "Object_1",
      "primitives": [
        {
          "attributes": {
            "NORMAL": 5,
            "POSITION": 4,
            "TEXCOORD_0": 6
          },
          "indices": 7,
          "material": 0,
          "mode": 4
        }
      ]
    },
    {
      "name": "Object_2",
      "primitives": [
        {
          "attributes": {
            "NORMAL": 9,
            "POSITION": 8,
            "TEXCOORD_0": 10
          },
          "indices": 11,
          "material": 0,
          "mode": 4
        }
      ]
    },
    {
      "name": "Object_3",
      "primitives": [
        {
          "attributes": {
            "NORMAL": 13,
            "POSITION": 12,
            "TEXCOORD_0": 14
          },
          "indices": 15,
          "material": 0,
          "mode": 4
        }
      ]
    },
    {
      "name": "Object_4",
      "primitives": [
        {
          "attributes": {
            "NORMAL": 17,
            "POSITION": 16,
            "TEXCOORD_0": 18
          },
          "indices": 19,
          "material": 0,
          "mode": 4
        }
      ]
    },
    {
      "name": "Object_5",
      "primitives": [
        {
          "attributes": {
            "NORMAL": 21,
            "POSITION": 20,
            "TEXCOORD_0": 22
          },
          "indices": 23,
          "material": 0,
          "mode": 4
        }
      ]
    },
    {
      "name": "Object_6",
      "primitives": [
        {
          "attributes": {
            "NORMAL": 25,
            "POSITION": 24,
            "TEXCOORD_0": 26
          },
          "indices": 27,
          "material": 0,
          "mode": 4
        }
      ]
    }
  ],
  "nodes": [
    {
      "children": [
        1
      ],
      "matrix": [
        1.0,
        0.0,
        0.0,
        0.0,
        0.0,
        2.220446049250313e-16,
        -1.0,
        0.0,
        0.0,
        1.0,
        2.220446049250313e-16,
        0.0,
        0.0,
        0.0,
        0.0,
        1.0
      ],
      "name": "Sketchfab_model"
    },
    {
      "children": [
        2
      ],
      "name": "root"
    },
    {
      "children": [
        3
      ],
      "matrix": [
        1.0,
        0.0,
        0.0,
        0.0,
        0.0,
        2.220446049250313e-16,
        1.0,
        0.0,
        0.0,
        -1.0,
        2.220446049250313e-16,
        0.0,
        0.0,
        0.0,
        0.0,
        1.0
      ],
      "name": "GLTF_SceneRootNode"
    },
    {
      "children": [
        4,
        5,
        6,
        7,
        8,
        9,
        10
      ],
      "name": "_0"
    },
    {
      "mesh": 0,
      "name": "Object_4"
    },
    {
      "mesh": 1,
      "name": "Object_5"
    },
    {
      "mesh": 2,
      "name": "Object_6"
    },
    {
      "mesh": 3,
      "name": "Object_7"
    },
    {
      "mesh": 4,
      "name": "Object_8"
    },
    {
      "mesh": 5,
      "name": "Object_9"
    },
    {
      "mesh": 6,
      "name": "Object_10"
    }
  ],
  "samplers": [
    {
      "magFilter": 9729,
      "minFilter": 9729,
      "wrapS": 33071,
      "wrapT": 33071
    }
  ],
  "scene": 0,
  "scenes": [
    {
      "name": "Sketchfab_Scene",
      "nodes": [
        0
      ]
    }
  ],
  "textures": [
    {
      "sampler": 0,
      "source": 0
    }
  ]
}
